<svg xmlns="http://www.w3.org/2000/svg" viewBox="0 0 64 64" fill="none">
  <defs>
    <radialGradient id="auraTop" cx="0" cy="0" r="1" gradientUnits="userSpaceOnUse" gradientTransform="translate(24 16) rotate(48) scale(26 22)">
      <stop stop-color="#22D3EE" stop-opacity=".34"/>
      <stop offset="1" stop-color="#22D3EE" stop-opacity="0"/>
    </radialGradient>
    <radialGradient id="auraBottom" cx="0" cy="0" r="1" gradientUnits="userSpaceOnUse" gradientTransform="translate(47 48) rotate(180) scale(27 24)">
      <stop stop-color="#4ADE80" stop-opacity=".2"/>
      <stop offset="1" stop-color="#4ADE80" stop-opacity="0"/>
    </radialGradient>
    <linearGradient id="glass" x1="15" y1="12" x2="49" y2="52" gradientUnits="userSpaceOnUse">
      <stop stop-color="#0F223D" stop-opacity=".92"/>
      <stop offset=".55" stop-color="#0B1A31" stop-opacity=".86"/>
      <stop offset="1" stop-color="#091625" stop-opacity=".94"/>
    </linearGradient>
    <linearGradient id="glassEdge" x1="18" y1="14" x2="46" y2="49" gradientUnits="userSpaceOnUse">
      <stop stop-color="#93C5FD" stop-opacity=".5"/>
      <stop offset=".35" stop-color="#22D3EE" stop-opacity=".28"/>
      <stop offset="1" stop-color="#86EFAC" stop-opacity=".28"/>
    </linearGradient>
    <linearGradient id="monogram" x1="19" y1="17" x2="45" y2="45" gradientUnits="userSpaceOnUse">
      <stop stop-color="#F8FAFC"/>
      <stop offset=".35" stop-color="#BAE6FD"/>
      <stop offset=".75" stop-color="#67E8F9"/>
      <stop offset="1" stop-color="#86EFAC"/>
    </linearGradient>
    <linearGradient id="monogramShadow" x1="24" y1="21" x2="40" y2="41" gradientUnits="userSpaceOnUse">
      <stop stop-color="#0C172A" stop-opacity=".72"/>
      <stop offset="1" stop-color="#0C172A" stop-opacity=".08"/>
    </linearGradient>
  </defs>

  <g>
    <path
      d="M32 12L46.5 20.6V42.6L32 52L17.5 42.6V20.6L32 12Z"
      fill="url(#glass)"
      stroke="url(#glassEdge)"
      stroke-width="1.35"
    />
    <path
      d="M32 15.5L43.4 22.2V40.8L32 48.1L20.6 40.8V22.2L32 15.5Z"
      fill="#08111F"
      fill-opacity=".34"
    />
    <path
      d="M32 12L46.5 20.6L32 29L17.5 20.6L32 12Z"
      fill="#E0F2FE"
      fill-opacity=".08"
    />
    <path
      d="M46.5 20.6V42.6L32 52V29L46.5 20.6Z"
      fill="#22D3EE"
      fill-opacity=".06"
    />
  </g>

  <path
    d="M23 19.5V44.5H31.7C36.7 44.5 40.3 42.8 42.5 39.5C44 37.2 44.7 34.4 44.7 31C44.7 27.5 43.9 24.7 42.3 22.5C40 19.5 36.4 18 31.5 18H23V19.5Z"
    fill="url(#monogramShadow)"
    opacity=".42"
  />

  <path
    d="M22.3 18.7V45.3H31.2C35.6 45.3 39 44.1 41.3 41.7C43.6 39.3 44.8 35.8 44.8 31.3C44.8 26.8 43.6 23.4 41.2 21.1C38.9 18.8 35.5 17.7 31 17.7H22.3V18.7ZM27 22H30.6C35.2 22 38 25.2 38 31.2C38 37.5 35.2 41 30.4 41H27V22Z"
    fill="url(#monogram)"
  />

  <path
    d="M24.4 24.3L27.6 38.8L31.4 29.8L35.1 38.8L38.5 24.3H35.8L33.4 35L31.4 29.8L29.5 35L27.1 24.3H24.4Z"
    fill="#031220"
    fill-opacity=".82"
  />

  <path
    d="M24.8 23.6L27.9 37.1L31.4 28.6L34.9 37.1L38 23.6"
    stroke="url(#monogram)"
    stroke-width="1.55"
    stroke-linecap="round"
    stroke-linejoin="round"
  />

  <path
    d="M20.4 20.3L32 27.2L43.6 20.3"
    stroke="#E2E8F0"
    stroke-opacity=".16"
    stroke-width="1"
    stroke-linecap="round"
  />
</svg>
